<svg xmlns="http://www.w3.org/2000/svg" viewBox="0 0 290 120">
  <linearGradient id="a" gradientUnits="userSpaceOnUse" x1="3.25" y1="60.94" x2="286.715" y2="60.94" gradientTransform="matrix(1 0 0 -1 0 119.49)">
    <stop offset=".36" stop-color="#6100a5"/>
    <stop offset=".456" stop-color="#7001a0"/>
    <stop offset=".641" stop-color="#980293"/>
    <stop offset=".895" stop-color="#d9057e"/>
    <stop offset=".97" stop-color="#ed0677"/>
  </linearGradient>
  <path d="M50 36c-4.4-5.3-11.1-8.6-19.4-8.6-16.5-.1-27.3 11.7-27.3 27.1v35.3h5.1c3.5-.2 10.3-1.9 10.5-12V54.2c0-6.9 4.8-11.6 11.8-11.6 10.3 0 11.4 8.2 11.4 11.6v35.6h5.1c3.4-.2 10.2-1.9 10.5-11.9V54.2c0-6.9 5-11.6 11.8-11.6 10.3 0 11.5 8.2 11.5 11.6v35.6h5.1c3.5-.2 10.4-1.9 10.5-12.2V54.5c0-16-10.1-27.2-27.1-27.2-8 0-14.8 3.4-19.5 8.7" fill="url(#a)"/>
  <linearGradient id="b" gradientUnits="userSpaceOnUse" x1="3.25" y1="46.043" x2="286.715" y2="46.043" gradientTransform="matrix(1 0 0 -1 0 119.49)">
    <stop offset=".36" stop-color="#6100a5"/>
    <stop offset=".456" stop-color="#7001a0"/>
    <stop offset=".641" stop-color="#980293"/>
    <stop offset=".895" stop-color="#d9057e"/>
    <stop offset=".97" stop-color="#ed0677"/>
  </linearGradient>
  <path d="M141.6 35.6L128.5 72l-14.3-37.7c-2.2-6-7.8-5.6-7.8-5.6H94.2l24.2 59.2c0-.1 0-.1-.1-.2 0 0 0 .1.1.2 0 .1.1.2.1.2l-.1-.3c.8 2.4.6 3.7-.2 6.1l-.5 1.5c-2.8 7-6.8 8.9-15.2 8.4v.1l5.8 14.3c10.8-.2 19-3.8 24.4-17.3l29.1-72.2h-10.9c-.5 0-6.8.2-9.3 6.9" fill="url(#b)"/>
  <linearGradient id="c" gradientUnits="userSpaceOnUse" x1="3.25" y1="59.3" x2="286.715" y2="59.3">
    <stop offset=".36" stop-color="#6100a5"/>
    <stop offset=".456" stop-color="#7001a0"/>
    <stop offset=".641" stop-color="#980293"/>
    <stop offset=".895" stop-color="#d9057e"/>
    <stop offset=".97" stop-color="#ed0677"/>
  </linearGradient>
  <path d="M188.4 27.4c-16.9-.1-30.6 13.8-30.6 32s13.7 31.8 30.6 31.8c16.9 0 30.7-13.6 30.7-31.8-.1-18.2-13.8-32-30.7-32zm0 49.5c-8.3 0-15-7.1-15-17.4 0-10.5 6.7-17.9 15-17.9s15 7.3 15 17.9c0 10.3-6.7 17.4-15 17.4z" fill="url(#c)"/>
  <linearGradient id="d" gradientUnits="userSpaceOnUse" x1="3.25" y1="46.45" x2="286.715" y2="46.45">
    <stop offset=".36" stop-color="#6100a5"/>
    <stop offset=".456" stop-color="#7001a0"/>
    <stop offset=".641" stop-color="#980293"/>
    <stop offset=".895" stop-color="#d9057e"/>
    <stop offset=".97" stop-color="#ed0677"/>
  </linearGradient>
  <path d="M257.8 27.6c-7 0-13.2 2.6-17.9 7.1V1.8h-3.2c-10.6 0-12.3 7.2-12.5 10.6v77.4h7.5c6 .1 7.4-3.7 7.5-5.9v-.6c4.7 5 11.2 7.8 18.6 7.8 16 0 29-13.7 29-31.7 0-18.1-13-31.8-29-31.8zm-2.3 49c-8.6.1-15.6-7.6-15.6-17.1 0-9.7 7-17.5 15.6-17.5s15.6 7.6 15.6 17.5c0 9.7-7 17.1-15.6 17.1z" fill="url(#d)"/>
</svg>
