<?xml version="1.0" encoding="utf-8"?>
<!-- Generator: Adobe Illustrator 19.0.0, SVG Export Plug-In . SVG Version: 6.00 Build 0)  -->
<svg version="1.1" id="layer" xmlns="http://www.w3.org/2000/svg" xmlns:xlink="http://www.w3.org/1999/xlink" x="0px" y="0px"
	 viewBox="-153 -46 652 652" style="enable-background:new -153 -46 652 652;" xml:space="preserve">
<style type="text/css">
	.st0{fill:#FFC500;}
</style>
<g id="Group_3">
	<g id="Group_1">
		<path id="Path_1" d="M54.6,353.7c-0.5,38.4-22.9,64.3-61.3,73.2c-12.5,3-25.4,4-38.4,4h-79.2c-4,0.5-7.5-2.5-7.5-6
			c0-0.5,0-1,0-1.5v-139c-0.5-4,2.5-7.5,6-7.5c0.5,0,1,0,1.5,0h81.2c12,0,23.4,1,34.9,3C30.2,288.9,54.1,315.3,54.6,353.7"/>
		<path id="Path_2" class="st0" d="M-123.8,260c-4,0.5-7.5-2.5-8-6c0-0.5,0-1,0-1.5V127.5c-0.5-4,2.5-7.5,6.5-8c0.5,0,1,0,1.5,0
			h69.3c11,0,21.9,1,32.4,3c35.9,8,57.8,31.9,58.3,67.3c-0.5,35.4-21.9,58.8-57.3,67.3c-11.5,2-23.4,3.5-34.9,3H-123.8"/>
	</g>
	<g id="Group_2" transform="translate(48.219 14.765)">
		<path id="Path_3" d="M409,411v-27.9c0-4.5-2-6.5-7-6.5c-5.5,0-9.5,3.5-9.5,6.5V411h-11.5v-61.8h11.5v22.4c3.5-3,8-4.5,12.5-4.5
			c9.5,0,14.9,4.5,14.9,13V411C420,411,409,411,409,411z"/>
		<path d="M209.7,178.3h11.5v61.8h-11.5V178.3z"/>
		<path id="Path_4" d="M369.7,380.1c-2.5-3-6-4.5-10-4c-7,0-10,4.5-10,13.5s3,13.5,10.5,13.5c4,0,7.5-1.5,10-4l5.5,8
			c-4.5,4-10.5,6-16.4,5.5c-14.9,0-20.4-9-20.4-22.4c0-13,6.5-22.4,20.9-22.4c6-0.5,12,1.5,16.4,5.5L369.7,380.1z"/>
		<path id="Path_5" d="M189.8,238.1c-4,11.5-7.5,18.4-18.9,18.4h-6.5v-9h5c4.5,0,6-1.5,8.5-7l-16.4-43.3h12l10.5,30.9l9.5-30.9h11.5
			L189.8,238.1z"/>
		<path id="Path_6" d="M191.3,325.3v-27.9c0-4.5-2-6.5-7-6.5c-5.5,0-9,3.5-9,6.5v27.9h-11.5v-42.8h9.5l1,4.5c4-3.5,8.5-5,13.5-5.5
			c9.5,0,14.9,4.5,14.9,13v30.9H191.3z"/>
		<path id="Path_7" d="M222.2,411v-27.9c0-4.5-2-6.5-7-6.5c-5.5,0-9,3.5-9,6.5V411h-11.5v-43.3h9.5l1,4.5c4-3.5,8.5-5,13.5-5.5
			c9.5,0,14.9,4.5,14.9,13v30.9L222.2,411z"/>
		<path id="Path_8" d="M182.3,378.6c-6,0-8.5,4.5-8.5,9.5V411h-11.5v-33.9l-1.5-9.5h10.5l1,6c2.5-4,7-6.5,11.5-6h4v11H182.3z"/>
		<path id="Path_9" d="M270.5,221.7h-28.9c-0.5,5,3,9.5,8.5,10c1,0,1.5,0,2.5,0c4.5,0.5,9-2,11.5-6l7,6c-4.5,6-11.5,9.5-18.9,8.5
			c-14.4,0-21.9-7-21.9-22.4c0-14,6.5-21.9,20.9-22.4c15.4,0,19.9,9,19.9,19.4v2C271,218.7,271,220.7,270.5,221.7z M259.6,213.2
			c0-6-3-9-8.5-9c-6,0-9,3.5-9,9.5h17.4V213.2z"/>
		<path id="Path_10" d="M252.1,307.4h-28.9c-0.5,5,3,9.5,8.5,10c1,0,1.5,0,2.5,0c4.5,0.5,9-2,11.5-6l7,6c-4.5,6-11.5,9.5-18.9,8.5
			c-14.4,0-21.9-7-21.9-22.4c0-14,6.5-21.9,20.9-22.4c15.4,0,19.9,9,19.9,19.4v2.5C252.1,303.9,252.1,305.9,252.1,307.4z
			 M240.6,298.9c0-6-3-9-8.5-9c-6,0-9,3.5-9,9.5h17.4V298.9z"/>
		<path id="Path_11" d="M136,240.6c-13.5,0-20.9-6-20.9-22.4s8-22.4,20.9-22.4c13,0,21.4,6,21.4,22.4S150,240.6,136,240.6z
			 M136,204.7c-7,0-9.5,4-9.5,14c0,10,2.5,14,9.5,14c7,0,9.5-4,9.5-14C145.5,208.7,143,204.7,136,204.7L136,204.7z"/>
		<path id="Path_12" d="M326.8,411.5c-4,0.5-7.5-1.5-8.5-5.5c-4,4-9,6-14,5.5c-10,0-13.5-4.5-13.5-12.5c0-11.5,10.5-14,26.4-14.9
			v-1.5c0-5-2.5-7-8-7c-4,0-8,2-10,6l-8-5c4-6.5,11-10.5,18.9-9.5c12,0,18.4,4.5,18.4,15.4V400c0,2.5,0.5,3.5,2.5,3.5c0.5,0,1,0,2,0
			v7.5C330.8,411,328.8,411.5,326.8,411.5z M317.4,391.6c-9,0.5-14.9,1.5-14.9,7c0,3.5,1.5,5,5.5,5c4.5,0.5,8.5-2.5,9.5-7
			c0-0.5,0-1,0-1.5V391.6z"/>
		<path id="Path_13" d="M263,412c-6.5,0-13-1.5-18.9-4.5v-58.3h11.5v22.4c3.5-3,8-4.5,13-4.5c10.5,0,16.4,6,16.4,21.4
			C285,407.5,275.5,412,263,412z M264.5,376.1c-4-0.5-7.5,2-9,6v19.4c2.5,1.5,5,2,8,2c8.5,0,9.5-6,9.5-14.4
			C273,379.1,270.5,376.1,264.5,376.1L264.5,376.1z"/>
		<path id="Path_14" d="M80.2,240.1H60.3v-59.8h19.9c17.9,0,27.9,7,27.9,29.4C108.1,230.6,99.6,240.1,80.2,240.1z M80.7,189.8h-8.5
			v40.4h8.5c10.5,0,14.4-6,14.4-20.9C95.6,195.3,91.2,189.8,80.7,189.8L80.7,189.8z"/>
		<path id="Path_15" d="M150.5,325.8c-4,0.5-7.5-1.5-8.5-5.5c-3.5,3.5-8.5,6-14,5.5c-10,0-13.5-4.5-13.5-12.5
			c0-11.5,10.5-14,26.4-14.9v-1.5c0-5-2.5-7-8-7c-4,0-8,2-10,6l-8-5c4-6.5,11-10.5,18.9-9.5c12,0,18.4,4.5,18.4,15.4v17.4
			c0,2.5,0.5,3.5,2.5,3.5c0.5,0,1,0,2,0v7.5C154.4,325.8,152.4,325.8,150.5,325.8z M141,305.9c-9,0.5-14.9,1.5-14.9,7
			c0,3.5,1.5,5,5.5,5c4.5,0.5,8.5-2.5,9.5-7c0-0.5,0-1,0-1.5V305.9z"/>
		<path id="Path_16" d="M80.2,325.3H60.3v-59.8h19.9c17.9,0,27.9,7,27.9,29.4C108.1,316.3,99.6,325.3,80.2,325.3z M80.7,275h-8.5
			v40.4h8.5c10.5,0,14.4-6,14.4-20.9C95.6,280.5,91.2,275,80.7,275L80.7,275z"/>
		<path id="Path_17" d="M152.9,392.6H124c-0.5,5,3,9.5,8.5,10c1,0,1.5,0,2.5,0c4.5,0.5,9-2,11.5-6l7,6c-4.5,6-11.5,9.5-18.9,8.5
			c-14.4,0-21.9-7-21.9-22.4c0-14,6.5-21.9,20.9-22.4c15.4,0,19.9,9,19.9,19.4v2C152.9,389.6,152.9,391.6,152.9,392.6z M141.5,384.1
			c0-6-3-9-8.5-9c-6,0-9,3.5-9,9.5h17.4V384.1z"/>
		<path id="Path_18" d="M84.2,411H60.3v-59.8h24.9c11,0,17.9,4.5,17.9,15.4c0.5,5-2.5,10-7,12.5c6,2,10,8,9,14
			C105.1,405.5,97.6,411,84.2,411z M82.7,360.2H72.2v14.9h10c6.5,0,8.5-3,8.5-8C91.2,362.7,88.7,360.2,82.7,360.2L82.7,360.2z
			 M82.2,384.1h-10V401h10.5c7.5,0,10.5-3,10.5-8.5C93.2,387.1,90.2,384.1,82.2,384.1L82.2,384.1z"/>
	</g>
	<g id="Group_4" transform="translate(4 44)">
		<path id="Path_688" d="M-12.7,363.5V355c0-1.5-0.5-2-2-2s-3,1-3,2v8.5h-3.5v-18.4h3.5v6.5c1-1,2.5-1.5,3.5-1.5c3,0,4.5,1.5,4.5,4
			v9L-12.7,363.5z"/>
		<path d="M-71.5,294.8h3.5v18.4h-3.5V294.8z"/>
		<path id="Path_689" d="M-24.1,354.5c-0.5-1-2-1.5-3-1c-2,0-3,1.5-3,4c0,2.5,1,4,3,4c1,0,2-0.5,3-1l1.5,2.5c-1.5,1-3,1.5-5,1.5
			c-4.5,0-6-2.5-6-6.5c-0.5-3,2-6,5-6.5c0.5,0,1,0,1.5,0c2,0,3.5,0.5,5,1.5L-24.1,354.5z"/>
		<path id="Path_690" d="M-77.5,312.2c-1,3.5-2.5,5.5-5.5,5.5h-2v-2.5h1.5c1,0,1.5-0.5,2.5-2l-5-13h3.5l3,9l3-9h3.5L-77.5,312.2z"/>
		<path id="Path_691" d="M-77,338.1v-8c0-1.5-0.5-2-2-2c-1.5,0-2.5,1-2.5,2v8.5h-3.5v-13h3l0.5,1.5c0.5-1.5,2-2,3.5-2
			c3,0,4.5,1.5,4.5,4v9H-77z"/>
		<path id="Path_692" d="M-68,363.5v-8c0-1.5-0.5-2-2-2s-2.5,1-2.5,2v8.5H-76v-13h3l0.5,1.5c1-1,2.5-1.5,4-1.5c3,0,4.5,1.5,4.5,4v9
			h-4V363.5z"/>
		<path id="Path_693" d="M-79.9,354c-2,0-2.5,1.5-2.5,3v7h-3v-10l-0.5-3h3l0.5,2c0.5-1,2-2,3.5-2h1v3C-77.9,354-79.9,354-79.9,354z"
			/>
		<path id="Path_694" d="M-53.5,307.7H-62c0,1.5,1,3,2.5,3h0.5c1.5,0,2.5-0.5,3.5-1.5l2,2c-1.5,2-3.5,3-5.5,2.5
			c-4.5,0-6.5-2-6.5-6.5c-0.5-3,1.5-6,5-6.5c0.5,0,1,0,1.5,0c3-0.5,5.5,1.5,6,4.5c0,0.5,0,1,0,1.5v0.5
			C-53.5,306.7-53.5,307.2-53.5,307.7z M-57,305.2c0-2-1-2.5-2.5-2.5c-1.5,0-2.5,1-2.5,3L-57,305.2L-57,305.2z"/>
		<path id="Path_695" d="M-59,333.1h-8.5c0,1.5,1,3,2.5,3h0.5c1.5,0,2.5-0.5,3.5-1.5l2,2c-1.5,2-3.5,3-5.5,2.5
			c-4.5-0.5-6.5-2.5-6.5-7.5c-0.5-3,1.5-6,5-6.5c0.5,0,1,0,1.5,0c2.5-0.5,5,1.5,5.5,4.5c0,0.5,0,1,0,1.5v0.5
			C-59,332.1-59,332.6-59,333.1z M-62.5,330.1c0-2-1-2.5-2.5-2.5c-1.5,0-2.5,1-2.5,3L-62.5,330.1L-62.5,330.1z"/>
		<path id="Path_696" d="M-93.4,313.2c-4,0-6.5-2-6.5-6.5c0-4.5,2.5-6.5,6.5-6.5c4,0,6.5,2,6.5,6.5
			C-86.9,311.2-89.4,313.2-93.4,313.2z M-93.4,302.7c-2,0-2.5,1-2.5,4c0,3,1,4,3,4c2,0,2.5-1,2.5-4
			C-90.4,303.7-91.4,302.7-93.4,302.7z"/>
		<path id="Path_697" d="M-37.1,363.5c-1,0-2-0.5-2.5-1.5c-1,1-2.5,1.5-4,1.5c-3,0-4-1.5-4-3.5c0-3.5,3-4,8-4.5V355
			c0-1.5-0.5-2-2.5-2c-1.5,0-2.5,0.5-3,2l-2.5-1.5c1-2,3.5-3,5.5-3c3.5,0,5.5,1.5,5.5,4.5v5c0,1,0,1,1,1h0.5v2
			C-35.6,363.5-36.1,364-37.1,363.5z M-39.6,358c-2.5,0-4.5,0.5-4.5,2c0,1,0.5,1.5,1.5,1.5c1.5,0,2.5-0.5,3-2c0,0,0,0,0-0.5
			C-39.6,359-39.6,358-39.6,358z"/>
		<path id="Path_698" d="M-55.5,364c-2,0-4-0.5-5.5-1.5v-16.9h3.5v6.5c1-1,2.5-1.5,4-1.5c3,0,5,2,5,6.5C-49.6,362.5-52,364-55.5,364
			z M-55.5,353.5c-1,0-2,0.5-2.5,1.5v5.5c0.5,0.5,1.5,0.5,2.5,0.5c2.5,0,3-1.5,3-4.5C-53,354-53.5,353.5-55.5,353.5L-55.5,353.5z"/>
		<path id="Path_699" d="M-109.8,313.2h-6v-17.9h6c5.5,0,8.5,2,8.5,8.5C-101.9,310.2-104.4,313.2-109.8,313.2z M-109.8,298.2h-2.5
			v12h2.5c3,0,4.5-2,4.5-6C-105.4,299.7-106.8,298.2-109.8,298.2L-109.8,298.2z"/>
		<path id="Path_700" d="M-89.4,338.6c-1,0-2-0.5-2.5-1.5c-1,1-2.5,1.5-4,1.5c-3,0-4-1.5-4-3.5c0-3.5,3-4,8-4.5v-0.5
			c0-1.5-0.5-2-2.5-2c-1-0.5-2.5,0.5-3,1.5l-2.5-1.5c1-2,3.5-3,5.5-3c3.5,0,5.5,1.5,5.5,4.5v5c0,1,0,1,1,1h0.5v2
			C-87.9,338.6-88.4,338.6-89.4,338.6z M-91.9,332.6c-2.5,0-4.5,0.5-4.5,2c0,1,0.5,1.5,1.5,1.5c1.5,0,2.5-0.5,3-2c0,0,0,0,0-0.5
			V332.6z"/>
		<path id="Path_701" d="M-109.8,338.1h-6v-17.4h6c5.5,0,8.5,2,8.5,8.5C-101.9,335.6-104.4,338.1-109.8,338.1z M-109.8,323.6h-2.5
			v12h2.5c3,0,4.5-2,4.5-6C-105.4,325.1-106.8,323.6-109.8,323.6z"/>
		<path id="Path_702" d="M-88.4,358h-8.5c0,1.5,1,3,2.5,3h0.5c1.5,0,2.5-0.5,3.5-1.5l2,2c-1.5,2-3.5,3-5.5,2.5c-4.5,0-6.5-2-6.5-6.5
			c-0.5-3,1.5-6,5-6.5c0.5,0,1,0,1.5,0c3-0.5,5.5,1.5,6,4.5c0,0.5,0,1,0,1.5v0.5C-88.4,357.5-88.4,358-88.4,358z M-91.9,355.5
			c0-2-1-2.5-2.5-2.5c-1.5,0-2.5,1-2.5,3L-91.9,355.5L-91.9,355.5z"/>
		<path id="Path_703" d="M-108.8,363.5h-7v-17.9h7.5c3.5,0,5.5,1.5,5.5,4.5c0,1.5-0.5,3-2,3.5c2,0.5,3,2.5,2.5,4
			C-102.4,362-104.9,363.5-108.8,363.5z M-109.3,348.6h-3v4.5h3c2,0,2.5-1,2.5-2.5C-106.8,349.1-107.3,348.6-109.3,348.6
			L-109.3,348.6z M-109.3,355.5h-3v5h3c2.5,0,3-1,3-2.5C-106.3,356.5-106.8,355.5-109.3,355.5L-109.3,355.5z"/>
	</g>
</g>
</svg>
